<svg width="148" height="82" viewBox="0 0 148 82" fill="none" xmlns="http://www.w3.org/2000/svg">
<rect y="30" width="60" height="60" rx="10" transform="rotate(-30 0 30)" fill="#1D9BF0"/>
<path d="M53.4924 51.5418L36.225 44.5139L39.0606 27.2652L45.7809 23.3852L42.313 42.3385L41.033 40.1215L60.2474 47.6418L53.4924 51.5418ZM38.7006 60.0818L24.5806 35.6252L30.0193 32.4852L44.1393 56.9418L38.7006 60.0818Z" fill="white"/>
<rect x="96" width="60" height="60" rx="10" transform="rotate(30 96 0)" fill="#FF0000"/>
<path d="M98.7738 54.792C96.7646 53.632 95.2192 52.3087 94.1376 50.822C93.0925 49.3256 92.3561 47.5611 91.9286 45.5283L97.482 44.0695C97.7472 45.4235 98.2065 46.6279 98.86 47.6826C99.55 48.7276 100.53 49.6168 101.8 50.3501C102.955 51.0168 103.964 51.3222 104.828 51.2666C105.714 51.2242 106.371 50.8335 106.798 50.0945C107.184 49.4248 107.29 48.7621 107.114 48.1064C106.938 47.4507 106.591 46.7727 106.071 46.0725C105.575 45.3856 104.991 44.6636 104.32 43.9065C103.671 43.1627 103.043 42.3842 102.435 41.5712C101.84 40.735 101.349 39.8513 100.963 38.9202C100.613 37.9792 100.464 36.9846 100.515 35.9364C100.579 34.865 100.971 33.7057 101.691 32.4587C102.558 30.9575 103.663 29.871 105.005 29.1989C106.371 28.5401 107.86 28.3069 109.474 28.4994C111.1 28.6687 112.756 29.24 114.442 30.2133C116.151 31.2 117.537 32.4002 118.599 33.814C119.684 35.2411 120.388 36.7409 120.712 38.3135L115.159 39.7722C114.86 38.5835 114.436 37.5843 113.887 36.7748C113.362 35.9787 112.625 35.3072 111.678 34.7606C110.732 34.2139 109.874 33.9653 109.107 34.0148C108.352 34.0413 107.782 34.3893 107.395 35.059C107.035 35.6826 106.95 36.3107 107.139 36.9432C107.341 37.5528 107.697 38.1894 108.207 38.8532C108.74 39.5303 109.33 40.2408 109.979 40.9846C110.65 41.7417 111.283 42.5384 111.878 43.3745C112.473 44.2107 112.939 45.1108 113.275 46.0748C113.648 47.0291 113.789 48.065 113.698 49.1826C113.62 50.277 113.215 51.4594 112.482 52.7295C111.135 55.062 109.243 56.418 106.807 56.7975C104.385 57.1538 101.707 56.4853 98.7738 54.792Z" fill="white"/>
</svg>
